# xmcd
#
# Track frame offsets:
#	150
#	12659
#	25157
#	35938
#	45697
#	56721
#	70414
#	81482
#	92695
#	104871
#	113758
#	123646
#
# Disc length: 1776 seconds
#
# Revision: 2
# Processed by: cddbd v1.5.2PL0 Copyright (c) Steve Scherf et al.
# Submitted via: audiograbber 1.83.01
#
DISCID=b406ee0c
DTITLE=Fats Domino - The Best Of
DYEAR=1966
DGENRE=Blues/Rock&Roll
TTITLE0=Lazy Lady
TTITLE1=Goodnight Sweatheart
TTITLE2=Let Me Call You Sweatheart
TTITLE3=Searchin' For Someone
TTITLE4=Nobody Needs You Like Me
TTITLE5=Who Cares
TTITLE6=Something You Got Baby
TTITLE7=If You Don't Know What Love Is
TTITLE8=Packin' Up
TTITLE9=(All Of My Life) For You
TTITLE10=Sally Was A Good Old Girl
TTITLE11=A Whole Lot Of Trouble
EXTD=
EXTT0=
EXTT1=
EXTT2=
EXTT3=
EXTT4=
EXTT5=
EXTT6=
EXTT7=
EXTT8=
EXTT9=
EXTT10=
EXTT11=
PLAYORDER=
